v  0.0  0.0  0.0
v  0.0  0.0  1.0
v  0.0  1.0  0.0
v  0.0  1.0  1.0
v  1.0  0.0  0.0
v  1.0  0.0  1.0
v  1.0  1.0  0.0
v  1.0  1.0  1.0

vt 0.000000 0.000000
vt 1.000000 0.000000
vt 1.000000 1.000000
vt 0.000000 1.000000

vn  0.0  0.0  1.0
vn  0.0  0.0 -1.0
vn  0.0  1.0  0.0
vn  0.0 -1.0  0.0
vn  1.0  0.0  0.0
vn -1.0  0.0  0.0

//front
f  2/1/1  6/2/1  8/3/1 
f  2/1/1  8/3/1  4/4/1 

//right
f  5/2/5  7/3/5  8/4/5 
f  5/2/5  8/4/5  6/1/5 

//back
f  1/2/2  7/4/2  5/1/2
f  1/2/2  3/3/2  7/4/2 

//left
f  1/1/6  4/3/6  3/4/6 
f  1/1/6  2/2/6  4/3/6

//bottom
f  1/4/4  5/3/4  6/2/4 
f  1/4/4  6/2/4  2/1/4 

//top
f  3/4/3  8/2/3  7/3/3 
f  3/4/3  4/1/3  8/2/3 